<svg width="1000" height="1000" viewBox="0 0 1000 1000" version="1.1" xmlns="http://www.w3.org/2000/svg" xmlns:xlink="http://www.w3.org/1999/xlink">
<title>Trowler</title>
<desc>Created using Figma</desc>
<g id="Canvas" transform="translate(-11271 -1041)">
<clipPath id="clip-0" clip-rule="evenodd">
<path d="M 11271 1041L 12271 1041L 12271 2041L 11271 2041L 11271 1041Z" fill="#FFFFFF"/>
</clipPath>
<g id="Trowler" clip-path="url(#clip-0)">
<path d="M 11271 1041L 12271 1041L 12271 2041L 11271 2041L 11271 1041Z"/>
<g id="Polygon">
<mask id="mask0_outline_ins">
<use xlink:href="#path0_fill" fill="white" transform="translate(11601 1217)"/>
</mask>
<g mask="url(#mask0_outline_ins)">
<use xlink:href="#path1_stroke_2x" transform="translate(11601 1217)" fill="#FFFFFF"/>
</g>
</g>
</g>
</g>
<defs>
<path id="path0_fill" d="M 152.269 57.0494C 157.422 39.9887 181.578 39.9887 186.731 57.0493L 309.283 462.796C 312.773 474.351 304.123 486 292.051 486L 46.9485 486C 34.877 486 26.227 474.351 29.7174 462.796L 152.269 57.0494Z"/>
<path id="path1_stroke_2x" d="M 46.9485 486L 46.9485 496L 46.9485 486ZM 309.283 462.796L 299.71 465.687L 309.283 462.796ZM 292.051 486L 292.051 476L 292.051 486ZM 177.158 59.9407L 299.71 465.687L 318.855 459.904L 196.304 54.158L 177.158 59.9407ZM 292.051 476L 46.9485 476L 46.9485 496L 292.051 496L 292.051 476ZM 39.2902 465.687L 161.842 59.9407L 142.696 54.158L 20.1445 459.904L 39.2902 465.687ZM 46.9485 476C 41.5834 476 37.739 470.823 39.2902 465.687L 20.1445 459.904C 14.7151 477.88 28.1705 496 46.9485 496L 46.9485 476ZM 299.71 465.687C 301.261 470.823 297.417 476 292.051 476L 292.051 496C 310.829 496 324.285 477.88 318.855 459.904L 299.71 465.687ZM 196.304 54.158C 188.288 27.6191 150.712 27.6192 142.696 54.158L 161.842 59.9407C 164.132 52.3582 174.868 52.3582 177.158 59.9407L 196.304 54.158Z"/>
</defs>
</svg>
